<svg id="Capa_1" enable-background="new 0 0 512 512" height="512" viewBox="0 0 512 512" width="512" xmlns="http://www.w3.org/2000/svg"><g><g><path d="m429.725 210.203c27.262-27.262 42.275-63.507 42.275-102.061v-77.151c0-8.818-7.173-15.991-15.991-15.991-4.271 0-8.287 1.663-11.307 4.683l-90.598 90.597c-3.186 3.186-4.94 7.422-4.94 11.927v94.606l51.088 22.862z" fill="#ebebf0"/><path d="m456.009 30c.546 0 .991.444.991.991v77.151c0 17.071-3.312 33.723-9.845 49.495-6.533 15.771-15.966 29.889-28.036 41.96l-20.921 20.921-34.032-11.891v-86.42c0-.499.194-.968.547-1.32l90.597-90.597c.185-.187.434-.29.699-.29m0-30c-8.219 0-16.102 3.265-21.914 9.077l-90.597 90.597c-5.976 5.976-9.334 14.082-9.334 22.534v102.792l68.143 33.833 38.023-38.023c29.883-29.882 46.67-70.409 46.67-112.668v-77.151c0-17.116-13.875-30.991-30.991-30.991z" fill="#cc9f56"/></g><g><path d="m82.275 210.203c-27.262-27.262-42.275-63.507-42.275-102.061v-77.151c0-8.818 7.173-15.991 15.991-15.991 4.271 0 8.287 1.663 11.307 4.683l90.598 90.597c3.186 3.186 4.94 7.422 4.94 11.927v94.606l-51.088 22.862z" fill="#fff5f5"/><path d="m55.991 30c.265 0 .514.103.701.29l90.597 90.597c.353.353.547.821.547 1.32v86.42l-34.032 11.891-20.921-20.921c-12.071-12.071-21.504-26.188-28.036-41.96-6.535-15.772-9.847-32.424-9.847-49.495v-77.151c0-.547.445-.991.991-.991m0-30c-17.116 0-30.991 13.875-30.991 30.991v77.151c0 42.259 16.787 82.786 46.668 112.668l38.023 38.023 68.144-33.833v-102.793c0-8.452-3.357-16.557-9.334-22.534l-90.596-90.596c-5.812-5.812-13.695-9.077-21.914-9.077z" fill="#e8ba64"/></g><g><path d="m234.534 126.407c-70.399 0-127.469 57.07-127.469 127.469v34.346l-38.75 38.75v57.56c0 70.398 57.07 127.468 127.469 127.468h60.216l20-175-35-210.593z" fill="#ffde91"/><path d="m404.935 288.221v-34.346c0-70.399-57.07-127.469-127.469-127.469h-6.466l-15 10v375.594h60.216c70.399 0 127.469-57.07 127.469-127.469v-57.56z" fill="#e8ba64"/></g><g><path d="m176.999 233.21h30v30h-30z" fill="#9d7123"/><path d="m305.001 233.21h30v30h-30z" fill="#6d4d1d"/></g><g><path d="m241 126.407 3.867 94.204c.738 17.985-3.934 35.779-13.412 51.082l-63.039 101.776v31.572c0 35.201 33.934 60.449 67.651 50.334l3.951-1.185c5.213-1.564 10.597-2.346 15.982-2.346l10-79.844-10-245.593z" fill="#fff5f5"/><path d="m280.545 271.693c-9.479-15.303-14.151-33.097-13.412-51.082l3.867-94.204h-15v325.437c5.385 0 10.77.782 15.982 2.346l3.951 1.185c33.717 10.115 67.651-15.133 67.651-50.334v-31.572z" fill="#ebebf0"/></g><g><path d="m224.133 389.037c0 17.6 14.267 31.867 31.867 31.867l10-31.867-10-31.867c-17.6 0-31.867 14.268-31.867 31.867z" fill="#4b5055"/><path d="m256 357.17v63.734c17.6 0 31.867-14.267 31.867-31.867s-14.267-31.867-31.867-31.867z" fill="#2d2d2d"/></g></g></svg>